<?xml version="1.0" encoding="UTF-8"?>
<svg version="1.1" xmlns="http://www.w3.org/2000/svg" width="640" height="640">
<path d="M0 0 C211.2 0 422.4 0 640 0 C640 211.2 640 422.4 640 640 C428.8 640 217.6 640 0 640 C0 428.8 0 217.6 0 0 Z " fill="#1E1E1D" transform="translate(0,0)"/>
<path d="M0 0 C2.9164679 1.75811271 4.84217708 4.22853073 6.9375 6.85546875 C7.91334868 8.04485686 8.88993714 9.2336383 9.8671875 10.421875 C10.37088867 11.03949707 10.87458984 11.65711914 11.39355469 12.29345703 C13.8998619 15.33637714 16.48439857 18.31090425 19.0625 21.29296875 C23.31957588 26.24080264 27.47982637 31.25634182 31.59375 36.32421875 C34.33052316 39.64483685 37.12863257 42.90834435 39.9375 46.16796875 C45.77449526 52.94520046 51.44021978 59.85081332 57.0703125 66.80078125 C61.24231 71.9297961 65.48731453 76.98094126 69.8125 81.98046875 C74.32241122 87.19961141 78.63587006 92.53768065 82.86279297 97.98754883 C85.96013829 101.96627518 89.15756321 105.83876025 92.4375 109.66796875 C96.6497263 114.59055634 100.69656247 119.61732153 104.67407227 124.73095703 C107.64262778 128.54071669 110.66473907 132.29999079 113.7277832 136.03417969 C142.49453223 171.11537295 166.00922399 208.53493504 172.56787109 254.1628418 C172.85309034 256.23052857 172.85309034 256.23052857 173.9375 258.16796875 C174.04901624 260.82524146 174.10163088 263.45535835 174.10546875 266.11328125 C174.10879715 266.91595428 174.11212555 267.71862732 174.11555481 268.54562378 C174.12062893 270.25550769 174.12296299 271.96540154 174.12280273 273.67529297 C174.12495069 276.23422877 174.14299119 278.79270532 174.16210938 281.3515625 C174.27951106 315.54225824 164.66955233 348.51852634 145.9375 377.16796875 C145.49277344 377.85004395 145.04804688 378.53211914 144.58984375 379.23486328 C137.75902182 389.58336823 130.16270658 398.76731575 121.46972656 407.60058594 C120.17328647 408.92677227 118.90726515 410.28259144 117.6484375 411.64453125 C101.9426441 428.32056672 80.74735192 441.2079502 59.3828125 449.24609375 C57.63346763 449.90559118 55.90031809 450.60869761 54.1796875 451.33984375 C47.42221243 454.13961603 40.66447971 456.13783729 33.5625 457.85546875 C32.7377417 458.057771 31.9129834 458.26007324 31.06323242 458.46850586 C17.33189437 461.65730001 3.84233905 462.54454016 -10.1875 462.48046875 C-11.40206879 462.47823303 -11.40206879 462.47823303 -12.64117432 462.47595215 C-25.30888061 462.43411672 -37.64109895 461.85305148 -50.0625 459.16796875 C-50.72717285 459.02875 -51.3918457 458.88953125 -52.07666016 458.74609375 C-62.80870559 456.41573757 -72.97164239 452.42101351 -83.0625 448.16796875 C-84.13419434 447.7196167 -84.13419434 447.7196167 -85.22753906 447.26220703 C-126.73290576 429.62004082 -163.12117372 392.52119005 -180.125 350.73046875 C-197.1474004 307.29356789 -200.33215372 259.51685956 -184.0625 215.16796875 C-183.08599165 213.02406424 -182.04493084 210.93970311 -180.9440918 208.85742188 C-179.84417634 206.74958057 -179.00759425 204.58534406 -178.1875 202.35546875 C-177.48060342 200.62571423 -176.77219289 198.89657786 -176.0625 197.16796875 C-175.7015625 196.18570313 -175.340625 195.2034375 -174.96875 194.19140625 C-172.96866337 189.56925482 -171.63116061 186.81332791 -166.84375 184.84375 C-163.23673278 184.05375157 -159.73530509 183.53919851 -156.0625 183.16796875 C-154.33580078 182.90113281 -154.33580078 182.90113281 -152.57421875 182.62890625 C-146.00427059 181.81477648 -139.36053188 181.92789447 -132.75 181.91796875 C-131.68942383 181.91446411 -131.68942383 181.91446411 -130.60742188 181.91088867 C-119.20042151 181.8966687 -108.22997723 182.75026749 -97.0625 185.16796875 C-97.08570313 184.57113281 -97.10890625 183.97429687 -97.1328125 183.359375 C-97.63844346 159.0529724 -90.70796845 134.69256088 -82.0625 112.16796875 C-81.69511719 111.16765625 -81.32773438 110.16734375 -80.94921875 109.13671875 C-67.70939584 73.60051655 -46.40763806 43.35548144 -19.75 16.66796875 C-19.22008453 16.13696564 -18.69016907 15.60596252 -18.14419556 15.05886841 C-16.60362759 13.51865784 -15.05871372 11.98297176 -13.51171875 10.44921875 C-12.60768311 9.55267578 -11.70364746 8.65613281 -10.7722168 7.73242188 C-2.84676232 0.2318386 -2.84676232 0.2318386 0 0 Z " fill="#DC2C00" transform="translate(327.0625,87.83203125)"/>
<path d="M0 0 C2.10413222 -0.00217444 4.20772849 -0.0203469 6.31176758 -0.03930664 C23.61631631 -0.11255825 40.61861084 2.97356726 56.4387207 10.18530273 C57.33461914 10.59264648 58.23051758 10.99999023 59.15356445 11.41967773 C73.26150995 18.16119263 85.96300669 26.5896173 97.4387207 37.18530273 C97.98125488 37.67869141 98.52378906 38.17208008 99.08276367 38.68041992 C116.50815498 54.67967918 127.97434467 74.90027155 135.4387207 97.18530273 C135.8305957 98.33643555 136.2224707 99.48756836 136.6262207 100.67358398 C143.39492864 122.24884054 143.80753243 147.28203048 138.4387207 169.18530273 C138.27243164 169.87253418 138.10614258 170.55976563 137.93481445 171.26782227 C134.75451789 183.98606381 130.11169686 196.84771676 123.06762695 207.95874023 C121.16771188 210.91321353 121.16771188 210.91321353 121.8293457 213.30249023 C124.06357547 215.91632215 126.54243418 218.13144149 129.1887207 220.31030273 C129.76799316 220.79184814 130.34726562 221.27339355 130.9440918 221.76953125 C147.58849246 235.43388116 165.94122593 247.06815075 185.4387207 256.18530273 C186.88142995 256.86629038 188.32413827 257.54727999 189.7668457 258.22827148 C193.31658374 259.89726969 196.8748406 261.54673717 200.4387207 263.18530273 C197.16861739 266.78783087 193.55906433 267.93547428 189.0637207 269.56030273 C188.22808594 269.86411865 187.39245117 270.16793457 186.53149414 270.48095703 C180.32941414 272.665493 174.080171 274.45870465 167.6887207 275.99780273 C166.88772949 276.19229004 166.08673828 276.38677734 165.26147461 276.5871582 C151.63476814 279.69769128 138.22665035 280.56134024 124.3137207 280.49780273 C123.09915192 280.49556702 123.09915192 280.49556702 121.86004639 280.49328613 C109.19234009 280.4514507 96.86012175 279.87038547 84.4387207 277.18530273 C83.77404785 277.04608398 83.109375 276.90686523 82.42456055 276.76342773 C71.69251511 274.43307155 61.52957831 270.43834749 51.4387207 266.18530273 C50.36702637 265.73695068 50.36702637 265.73695068 49.27368164 265.27954102 C7.76831494 247.6373748 -28.61995302 210.53852403 -45.6237793 168.74780273 C-62.6461797 125.31090188 -65.83093301 77.53419355 -49.5612793 33.18530273 C-48.58477095 31.04139822 -47.54371014 28.95703709 -46.44287109 26.87475586 C-45.34295564 24.76691456 -44.50637354 22.60267804 -43.6862793 20.37280273 C-42.97938271 18.64304822 -42.27097219 16.91391185 -41.5612793 15.18530273 C-41.2003418 14.20303711 -40.8394043 13.22077148 -40.4675293 12.20874023 C-38.46744266 7.5865888 -37.12993991 4.83066189 -32.3425293 2.86108398 C-28.73551208 2.07108556 -25.23408439 1.5565325 -21.5612793 1.18530273 C-20.41788086 1.00612305 -19.27448242 0.82694336 -18.09643555 0.64233398 C-12.09462204 -0.1039156 -6.0386396 -0.0006961 0 0 Z " fill="#FEC300" transform="translate(192.561279296875,269.814697265625)"/>
<path d="M0 0 C23.02589266 4.29400275 43.92637198 17.23568315 61 33 C61.54253418 33.49338867 62.08506836 33.98677734 62.64404297 34.49511719 C80.06943428 50.49437644 91.53562397 70.71496882 99 93 C99.391875 94.15113281 99.78375 95.30226563 100.1875 96.48828125 C106.95620794 118.06353781 107.36881173 143.09672774 102 165 C101.83371094 165.68723145 101.66742188 166.37446289 101.49609375 167.08251953 C98.31579718 179.80076108 93.67297615 192.66241403 86.62890625 203.7734375 C84.72899118 206.7279108 84.72899118 206.7279108 85.390625 209.1171875 C87.62485477 211.73101942 90.10371348 213.94613876 92.75 216.125 C93.32927246 216.60654541 93.90854492 217.08809082 94.50537109 217.58422852 C111.14977175 231.24857842 129.50250523 242.88284802 149 252 C150.44270925 252.68098765 151.88541757 253.36197726 153.328125 254.04296875 C156.87786304 255.71196695 160.43611989 257.36143443 164 259 C160.72989669 262.60252814 157.12034362 263.75017155 152.625 265.375 C151.78936523 265.67881592 150.95373047 265.98263184 150.09277344 266.2956543 C143.89069343 268.48019027 137.64145029 270.27340192 131.25 271.8125 C130.44900879 272.0069873 129.64801758 272.20147461 128.82275391 272.40185547 C115.19604744 275.51238855 101.78792964 276.37603751 87.875 276.3125 C86.66043121 276.31026428 86.66043121 276.31026428 85.42132568 276.3079834 C72.75731151 276.26616016 60.41596603 275.69862217 48 273 C46.98703857 272.7831958 46.98703857 272.7831958 45.95361328 272.56201172 C35.96990227 270.3398547 26.49128474 266.74163656 17 263 C17 262.67 17 262.34 17 262 C18.093125 261.79375 19.18625 261.5875 20.3125 261.375 C33.81017451 257.97681786 46.5454002 247.82574323 57 239 C57.80050781 238.34644531 58.60101563 237.69289063 59.42578125 237.01953125 C67.83490488 229.87110558 77.20467561 220.10627507 82 210 C81.58040231 206.61808519 80.37204417 205.02703682 77.9375 202.71484375 C77.3098877 202.10745361 76.68227539 201.50006348 76.03564453 200.87426758 C75.36388184 200.23513428 74.69211914 199.59600098 74 198.9375 C67.83727062 192.92371657 62.23856629 186.84733905 57 180 C56.27683594 179.07058594 55.55367188 178.14117187 54.80859375 177.18359375 C32.3420798 147.84037292 16.36838323 115.2932051 7.61083984 79.41552734 C7.08998118 77.35582485 6.49932499 75.31398133 5.89453125 73.27734375 C4.93534351 69.76311441 4.4308109 66.3657343 4 62.75 C3.44444481 58.24049343 2.81147388 53.77300372 1.9375 49.3125 C-0.17489112 38.03169098 -0.13057378 26.68125789 -0.0625 15.25 C-0.05746985 13.76302236 -0.05290965 12.27604305 -0.04882812 10.7890625 C-0.03795432 7.19267294 -0.0207752 3.59634763 0 0 Z " fill="#FE9000" transform="translate(229,274)"/>
</svg>
